<svg width="120" height="35" viewBox="0 0 120 35" fill="none" xmlns="http://www.w3.org/2000/svg">
<path d="M13.9082 26.8306V34.7575L27.8139 26.7279V18.802L13.9082 26.8306Z" fill="#2947A9"/>
<path d="M20.133 11.5211L26.9943 7.55762L13.9082 0V7.92672L20.133 11.5211Z" fill="#0B267D"/>
<path d="M8.50378 13.8879V21.8172L13.908 24.9371V17.0114L8.50378 13.8879Z" fill="#91A1D4"/>
<path d="M27.8139 8.97827L13.9082 17.0112V24.937L27.8139 16.9073V8.97827Z" fill="#2947A9"/>
<path d="M0.828064 7.553L7.64819 11.5396L13.9079 7.92672V0L0.828064 7.553Z" fill="#2947A9"/>
<path d="M6.8636 22.7645V12.937L0 8.97485V26.7277L13.908 34.7573V26.8304L6.8636 22.7645Z" fill="#91A1D4"/>
<path d="M53.8098 10.9021L53.1293 13.8217H48.4535L45.7754 25.3904H41.9996L44.6778 13.8217H39.9581L40.6386 10.9021H53.8098ZM52.0893 25.3904L55.7114 9.76058H59.4432L57.7968 16.9169L57.4236 17.4438C57.6139 16.8291 57.8992 16.2803 58.2797 15.7974C58.6602 15.3144 59.1359 14.9266 59.7066 14.6339C60.2774 14.3412 60.9286 14.1949 61.6603 14.1949C62.3921 14.1949 63.014 14.3632 63.5263 14.6998C64.0531 15.0364 64.419 15.512 64.6239 16.1267C64.8434 16.7413 64.858 17.473 64.6678 18.3218L63.0214 25.3904H59.2895L60.8042 18.9146C60.9359 18.3292 60.8847 17.8755 60.6506 17.5535C60.4164 17.2169 60.0359 17.0486 59.509 17.0486C59.1139 17.0486 58.7627 17.1438 58.4554 17.334C58.1627 17.5096 57.9066 17.7804 57.687 18.1462C57.4822 18.4975 57.3212 18.9365 57.2041 19.4633L55.8211 25.3904H52.0893ZM71.6567 25.5879C70.5738 25.5879 69.6225 25.3831 68.803 24.9733C67.9834 24.5489 67.3468 23.9635 66.8931 23.2171C66.4395 22.4708 66.2126 21.6 66.2126 20.6049C66.2126 19.3755 66.4614 18.2853 66.959 17.334C67.4712 16.3681 68.1883 15.6071 69.1103 15.051C70.0469 14.4949 71.1591 14.2168 72.447 14.2168C73.5153 14.2168 74.4227 14.4217 75.169 14.8315C75.93 15.2266 76.5081 15.7901 76.9032 16.5218C77.2984 17.2535 77.4959 18.117 77.4959 19.1121C77.4959 19.3902 77.4813 19.6829 77.452 19.9902C77.4228 20.2975 77.3642 20.5975 77.2764 20.8902H68.6273V18.8706H74.8398L73.808 19.4414C73.8665 19.2365 73.9031 19.0609 73.9178 18.9146C73.9324 18.7682 73.9397 18.6292 73.9397 18.4975C73.9397 18.117 73.8739 17.8023 73.7422 17.5535C73.6104 17.3047 73.4275 17.1218 73.1934 17.0047C72.9592 16.873 72.6811 16.8072 72.3592 16.8072C71.8323 16.8072 71.3933 16.9316 71.0421 17.1803C70.7055 17.4291 70.4347 17.7584 70.2298 18.1682C70.025 18.5633 69.8786 18.995 69.7908 19.4633C69.7176 19.9317 69.681 20.3853 69.681 20.8244C69.681 21.2927 69.7688 21.6878 69.9445 22.0098C70.1347 22.3317 70.3835 22.5805 70.6908 22.7561C71.0128 22.9171 71.386 22.9976 71.8104 22.9976C72.3372 22.9976 72.7616 22.8805 73.0836 22.6464C73.4056 22.3976 73.6543 22.0903 73.83 21.7244L76.9032 22.9318C76.6544 23.4879 76.2666 23.9635 75.7398 24.3586C75.2276 24.7538 74.6202 25.0611 73.9178 25.2806C73.2299 25.4855 72.4763 25.5879 71.6567 25.5879ZM79.8455 25.3904V10.9021H86.8921C88.6775 10.9167 89.9946 11.2606 90.8434 11.9338C91.6922 12.5924 92.1166 13.551 92.1166 14.8095C92.1166 15.6291 91.8752 16.3389 91.3922 16.9389C90.9093 17.5243 90.1702 17.8974 89.1751 18.0584V18.0804C90.2873 18.2267 91.1142 18.6145 91.6556 19.2438C92.2118 19.8585 92.4898 20.6049 92.4898 21.4829C92.4898 22.7269 92.0508 23.6928 91.1727 24.3806C90.2946 25.0538 88.9775 25.3904 87.2213 25.3904H79.8455ZM83.4895 22.7342H86.5847C87.2726 22.7342 87.7848 22.5952 88.1214 22.3171C88.458 22.039 88.6263 21.6366 88.6263 21.1097C88.6263 20.5975 88.458 20.2097 88.1214 19.9463C87.7848 19.6682 87.2726 19.5292 86.5847 19.5292H83.4895V22.7342ZM83.4895 16.8291H86.2335C87.5799 16.8291 88.2531 16.3023 88.2531 15.2486C88.2531 14.1949 87.5799 13.668 86.2335 13.668H83.4895V16.8291ZM99.8129 14.1949C100.969 14.1949 101.979 14.4217 102.842 14.8754C103.72 15.3144 104.401 15.9657 104.884 16.8291C105.381 17.6779 105.63 18.7023 105.63 19.9024C105.63 21.1024 105.381 22.1342 104.884 22.9976C104.401 23.8464 103.72 24.4977 102.842 24.9513C101.979 25.3904 100.969 25.6099 99.8129 25.6099C98.686 25.6099 97.6835 25.3904 96.8054 24.9513C95.9274 24.4977 95.2395 23.8464 94.742 22.9976C94.259 22.1342 94.0175 21.1024 94.0175 19.9024C94.0175 18.7023 94.259 17.6779 94.742 16.8291C95.2395 15.9657 95.9274 15.3144 96.8054 14.8754C97.6835 14.4217 98.686 14.1949 99.8129 14.1949ZM99.8129 16.8511C99.3885 16.8511 99.0226 16.9535 98.7153 17.1584C98.4079 17.3633 98.1738 17.6926 98.0128 18.1462C97.8518 18.5999 97.7713 19.1853 97.7713 19.9024C97.7713 20.6195 97.8518 21.2049 98.0128 21.6585C98.1738 22.0976 98.4079 22.4269 98.7153 22.6464C99.0226 22.8513 99.3885 22.9537 99.8129 22.9537C100.252 22.9537 100.625 22.8513 100.932 22.6464C101.24 22.4269 101.474 22.0976 101.635 21.6585C101.796 21.2049 101.876 20.6195 101.876 19.9024C101.876 19.1853 101.796 18.5999 101.635 18.1462C101.474 17.6926 101.24 17.3633 100.932 17.1584C100.625 16.9535 100.252 16.8511 99.8129 16.8511ZM110.356 14.4144L113.034 19.3536L114.264 19.2438L118.588 25.3904H114.308L111.542 20.3853H110.246L106.054 14.4144H110.356ZM118.5 14.4144L114.351 20.3414L112.968 20.2536L110.093 25.3904H105.9L110.312 19.1999L111.585 19.3755L114.308 14.4144H118.5Z" fill="#2947A9"/>
</svg>
